/* XPM */
static char * close_pressed_xpm[] = {
"24 25 19 1",
" 	c #E8E8E8",
".	c #A3A3A3",
"+	c #9C9C9C",
"@	c #2D2D2D",
"#	c #4D4D4D",
"$	c #575757",
"%	c #929292",
"&	c #4B4B4B",
"*	c #CBCBCB",
"=	c #424242",
"-	c #C8C8C8",
";	c #353535",
">	c #343434",
",	c #313131",
"'	c #BCBCBC",
")	c #9A9A9A",
"!	c #8A8A8A",
"~	c #909090",
"{	c #888888",
"                        ",
"                        ",
"                        ",
"                        ",
"                        ",
"                        ",
"                        ",
"                        ",
"        .     +         ",
"       .@#   $@%        ",
"        &@#*$@=-        ",
"         &@;@=-         ",
"         *>@,'          ",
"         $@,@#          ",
"        $@='&@#         ",
"       )@=-  &@!        ",
"        ~-    {         ",
"                        ",
"                        ",
"                        ",
"                        ",
"                        ",
"                        ",
"                        ",
"                        "};
